<svg width="19.000000" height="19.000000" viewBox="0 0 19 19" fill="none" xmlns="http://www.w3.org/2000/svg" xmlns:xlink="http://www.w3.org/1999/xlink">
	<desc>
	</desc>
	<defs/>
	<path id="Vector" d="M12.24 13.11L13.92 11.43C14.15 11.2 14.44 11.05 14.75 10.98C15.06 10.92 15.38 10.95 15.68 11.07L17.73 11.88C18.02 12 18.28 12.21 18.46 12.48C18.64 12.75 18.74 13.06 18.75 13.38L18.75 17.13C18.74 17.35 18.7 17.57 18.61 17.77C18.52 17.97 18.39 18.15 18.23 18.3C18.07 18.45 17.89 18.57 17.68 18.65C17.47 18.72 17.25 18.76 17.04 18.75C2.69 17.85 -0.21 5.7 -0.75 1.05C-0.78 0.82 -0.76 0.59 -0.69 0.37C-0.62 0.16 -0.5 -0.05 -0.35 -0.22C-0.19 -0.39 0 -0.52 0.21 -0.62C0.42 -0.71 0.64 -0.76 0.87 -0.75L4.5 -0.75C4.82 -0.75 5.13 -0.66 5.4 -0.47C5.67 -0.29 5.88 -0.04 6 0.27L6.81 2.31C6.93 2.61 6.96 2.93 6.9 3.24C6.84 3.56 6.68 3.84 6.46 4.07L4.78 5.75C4.78 5.75 5.75 12.3 12.24 13.11Z" fill="#EC1B2E" fill-opacity="1.000000" fill-rule="nonzero"/>
</svg>
