<svg width="18.000000" height="15.000000" viewBox="0 0 18 15" fill="none" xmlns="http://www.w3.org/2000/svg" xmlns:xlink="http://www.w3.org/1999/xlink">
	<desc>
			Created with Pixso.
	</desc>
	<defs/>
	<path id="Vector" d="M3 0C2.2 0 1.44 0.31 0.87 0.87C0.31 1.44 0 2.2 0 3L0 3.3L9 8.14L18 3.3L18 3C18 2.2 17.68 1.44 17.12 0.87C16.55 0.31 15.79 0 15 0L3 0ZM18 5L9.35 9.66C9.24 9.71 9.12 9.74 9 9.74C8.87 9.74 8.75 9.71 8.64 9.66L0 5L0 12C0 12.79 0.31 13.55 0.87 14.12C1.44 14.68 2.2 15 3 15L15 15C15.79 15 16.55 14.68 17.12 14.12C17.68 13.55 18 12.79 18 12L18 5Z" fill="#EC1B2E" fill-opacity="1.000000" fill-rule="nonzero"/>
</svg>
