<svg width="14.000000" height="18.003418" viewBox="0 0 14 18.0034" fill="none" xmlns="http://www.w3.org/2000/svg" xmlns:xlink="http://www.w3.org/1999/xlink">
	<desc>
			Created with Pixso.
	</desc>
	<defs/>
	<path id="Vector" d="M7 18C5.73 16.92 4.56 15.74 3.5 14.47C1.89 12.56 0 9.71 0 7C-0.01 5.61 0.4 4.26 1.17 3.11C1.94 1.96 3.04 1.06 4.32 0.53C5.6 0 7 -0.14 8.36 0.13C9.72 0.4 10.97 1.07 11.95 2.05C12.6 2.7 13.12 3.47 13.47 4.32C13.82 5.17 14 6.08 14 7C14 9.71 12.1 12.56 10.5 14.47C9.43 15.74 8.26 16.92 7 18ZM7 4C6.2 4 5.44 4.31 4.87 4.88C4.31 5.44 4 6.2 4 7C4 7.79 4.31 8.56 4.87 9.12C5.44 9.68 6.2 10 7 10C7.79 10 8.55 9.68 9.12 9.12C9.68 8.56 10 7.79 10 7C10 6.2 9.68 5.44 9.12 4.88C8.55 4.31 7.79 4 7 4Z" fill="#EC1B2E" fill-opacity="1.000000" fill-rule="nonzero"/>
</svg>
