<svg width="14.000000" height="18.000000" viewBox="0 0 14 18" fill="none" xmlns="http://www.w3.org/2000/svg" xmlns:xlink="http://www.w3.org/1999/xlink">
	<desc>
	</desc>
	<defs/>
	<path id="Vector" d="M7 18C5.73 16.92 4.56 15.74 3.5 14.46C1.89 12.55 0 9.71 0 7C-0.01 5.61 0.4 4.26 1.17 3.1C1.94 1.95 3.04 1.05 4.32 0.52C5.6 -0.01 7 -0.14 8.36 0.13C9.72 0.4 10.97 1.06 11.95 2.04C12.6 2.69 13.12 3.46 13.47 4.31C13.82 5.16 14 6.08 14 7C14 9.71 12.1 12.55 10.5 14.46C9.43 15.74 8.26 16.92 7 18ZM7 4C6.2 4 5.44 4.31 4.87 4.87C4.31 5.44 4 6.2 4 7C4 7.79 4.31 8.55 4.87 9.12C5.44 9.68 6.2 10 7 10C7.79 10 8.55 9.68 9.12 9.12C9.68 8.55 10 7.79 10 7C10 6.2 9.68 5.44 9.12 4.87C8.55 4.31 7.79 4 7 4Z" fill="#EC1B2E" fill-opacity="1.000000" fill-rule="nonzero"/>
</svg>
