<svg width="30.000000" height="17.150879" viewBox="0 0 30 17.1509" fill="none" xmlns="http://www.w3.org/2000/svg" xmlns:xlink="http://www.w3.org/1999/xlink">
	<desc>
			Created with Pixso.
	</desc>
	<defs/>
	<path id="Vector" d="M26.7 12.02C26.7 12.02 29.12 14.41 29.72 15.52C29.74 15.54 29.74 15.56 29.75 15.57C30 15.98 30.06 16.3 29.93 16.54C29.73 16.93 29.05 17.13 28.81 17.15L24.53 17.15C24.23 17.15 23.61 17.07 22.85 16.55C22.27 16.14 21.7 15.48 21.14 14.83C20.31 13.86 19.59 13.03 18.87 13.03C18.77 13.03 18.68 13.04 18.6 13.07C18.05 13.25 17.35 14.03 17.35 16.12C17.35 16.77 16.83 17.15 16.47 17.15L14.51 17.15C13.84 17.15 10.35 16.91 7.27 13.66C3.48 9.67 0.08 1.67 0.05 1.6C-0.16 1.08 0.28 0.8 0.76 0.8L5.09 0.8C5.67 0.8 5.86 1.15 5.99 1.47C6.14 1.83 6.71 3.27 7.64 4.9C9.15 7.54 10.07 8.62 10.81 8.62C10.95 8.62 11.09 8.58 11.21 8.51C12.18 7.98 12 4.53 11.95 3.82C11.95 3.68 11.95 2.28 11.45 1.6C11.1 1.12 10.5 0.93 10.13 0.86C10.23 0.72 10.44 0.5 10.7 0.37C11.36 0.04 12.56 0 13.75 0L14.4 0C15.69 0.01 16.02 0.1 16.49 0.21C17.43 0.44 17.45 1.05 17.37 3.13C17.35 3.72 17.32 4.39 17.32 5.18C17.32 5.35 17.31 5.53 17.31 5.72C17.28 6.79 17.25 7.99 18 8.49C18.1 8.55 18.21 8.58 18.33 8.58C18.59 8.58 19.37 8.58 21.49 4.94C22.42 3.34 23.14 1.44 23.19 1.3C23.23 1.22 23.35 1 23.51 0.91C23.62 0.85 23.74 0.82 23.86 0.82L28.95 0.82C29.51 0.82 29.89 0.91 29.96 1.12C30.08 1.46 29.93 2.5 27.61 5.64C27.22 6.16 26.88 6.62 26.57 7.01C24.47 9.78 24.47 9.92 26.7 12.02Z" fill="#EC1B2E" fill-opacity="1.000000" fill-rule="evenodd"/>
</svg>
