<svg width="30.000000" height="24.191406" viewBox="0 0 30 24.1914" fill="none" xmlns="http://www.w3.org/2000/svg" xmlns:xlink="http://www.w3.org/1999/xlink">
	<desc>
			Created with Pixso.
	</desc>
	<defs/>
	<path id="Vector" d="M20.95 23.3C15.95 23.3 11.9 19.92 11.9 15.77C11.9 11.6 15.95 8.23 20.95 8.23C25.94 8.23 30 11.6 30 15.77C30 18.03 28.78 20.08 26.87 21.46C26.77 21.53 26.69 21.64 26.65 21.76C26.61 21.89 26.61 22.02 26.65 22.14L27.06 23.66C27.08 23.73 27.1 23.81 27.11 23.88C27.11 23.96 27.08 24.04 27.02 24.1C26.96 24.15 26.89 24.18 26.81 24.19C26.74 24.18 26.68 24.16 26.63 24.13L24.65 22.99C24.51 22.9 24.34 22.85 24.17 22.85C24.08 22.85 23.99 22.86 23.91 22.89C22.94 23.16 21.95 23.3 20.95 23.3ZM16.99 14.14C17.1 14.31 17.26 14.45 17.45 14.55C17.63 14.65 17.84 14.69 18.05 14.69C18.26 14.68 18.46 14.62 18.64 14.51C18.82 14.4 18.96 14.25 19.07 14.06C19.17 13.88 19.22 13.68 19.22 13.47C19.22 13.26 19.16 13.05 19.06 12.87C18.96 12.69 18.81 12.54 18.63 12.43C18.45 12.32 18.24 12.27 18.03 12.26C17.87 12.26 17.72 12.29 17.57 12.35C17.42 12.41 17.29 12.5 17.18 12.62C17.06 12.73 16.98 12.86 16.91 13.01C16.85 13.16 16.82 13.31 16.82 13.47C16.81 13.71 16.87 13.94 16.99 14.14L16.99 14.14ZM23.05 14.14C23.16 14.31 23.32 14.46 23.51 14.55C23.69 14.65 23.9 14.69 24.11 14.68C24.32 14.68 24.52 14.61 24.7 14.5C24.88 14.39 25.03 14.24 25.13 14.05C25.23 13.87 25.28 13.66 25.27 13.46C25.27 13.25 25.21 13.04 25.11 12.86C25 12.68 24.85 12.53 24.67 12.43C24.49 12.32 24.28 12.26 24.07 12.26C23.75 12.26 23.45 12.39 23.22 12.62C22.99 12.84 22.87 13.15 22.87 13.47C22.86 13.71 22.92 13.94 23.05 14.14Z" fill="#333333" fill-opacity="1.000000" fill-rule="nonzero"/>
	<path id="Vector" d="M0 9.04C0 11.77 1.46 14.23 3.75 15.9C3.87 15.99 3.97 16.12 4.02 16.27C4.07 16.41 4.07 16.57 4.02 16.72L3.71 17.85L3.53 18.55C3.49 18.63 3.47 18.72 3.47 18.81C3.47 18.86 3.47 18.9 3.49 18.95C3.51 18.99 3.54 19.03 3.57 19.07C3.6 19.1 3.64 19.13 3.69 19.14C3.73 19.16 3.78 19.17 3.83 19.17C3.9 19.17 3.97 19.15 4.04 19.12L6.41 17.74C6.59 17.64 6.79 17.58 6.99 17.58C7.1 17.58 7.21 17.59 7.31 17.62C8.3 17.91 9.33 18.07 10.36 18.11C10.14 17.35 10.02 16.56 10.03 15.77C10.03 10.26 15.25 6.35 20.95 6.35C21.04 6.35 21.13 6.35 21.23 6.36C19.85 2.67 15.73 0 10.86 0C4.86 0 0 4.04 0 9.04ZM8.68 6.13C8.68 6.51 8.53 6.88 8.26 7.15C7.99 7.42 7.62 7.57 7.24 7.57C6.85 7.57 6.49 7.42 6.22 7.15C5.94 6.88 5.79 6.51 5.79 6.13C5.79 5.75 5.94 5.38 6.22 5.11C6.49 4.84 6.85 4.68 7.24 4.68C7.62 4.68 7.99 4.84 8.26 5.11C8.53 5.38 8.68 5.75 8.68 6.13ZM15.95 6.13C15.95 6.51 15.79 6.88 15.52 7.15C15.25 7.42 14.88 7.57 14.5 7.57C14.12 7.57 13.75 7.42 13.48 7.15C13.21 6.88 13.06 6.51 13.06 6.13C13.06 5.75 13.21 5.38 13.48 5.11C13.75 4.84 14.12 4.68 14.5 4.68C14.88 4.68 15.25 4.84 15.52 5.11C15.79 5.38 15.95 5.75 15.95 6.13Z" fill="#333333" fill-opacity="1.000000" fill-rule="nonzero"/>
</svg>
