<svg width="30.004395" height="20.012695" viewBox="0 0 30.0044 20.0127" fill="none" xmlns="http://www.w3.org/2000/svg" xmlns:xlink="http://www.w3.org/1999/xlink">
	<desc>
			Created with Pixso.
	</desc>
	<defs/>
	<path id="Vector" d="M29.37 3.14C29.2 2.53 28.87 1.98 28.41 1.55C27.94 1.1 27.37 0.78 26.74 0.62C24.39 0 14.99 0 14.99 0C11.07 -0.04 7.15 0.15 3.25 0.59C2.62 0.76 2.05 1.09 1.58 1.54C1.12 1.98 0.78 2.53 0.61 3.13C0.19 5.4 -0.02 7.7 0 10C-0.02 12.3 0.18 14.6 0.61 16.87C0.78 17.47 1.11 18.01 1.57 18.45C2.04 18.9 2.62 19.21 3.25 19.38C5.63 20 14.99 20 14.99 20C18.91 20.05 22.84 19.85 26.74 19.41C27.37 19.25 27.94 18.93 28.41 18.49C28.87 18.05 29.2 17.5 29.37 16.9C29.8 14.63 30.01 12.33 30 10.03C30.03 7.72 29.82 5.4 29.37 3.13L29.37 3.14ZM12 14.28L12 5.72L19.82 10L12 14.28Z" fill="#333333" fill-opacity="1.000000" fill-rule="nonzero"/>
</svg>
